<?xml version="1.0" encoding="UTF-8" standalone="no"?>
<!DOCTYPE svg PUBLIC "-//W3C//DTD SVG 1.1//EN"
 "http://www.w3.org/Graphics/SVG/1.1/DTD/svg11.dtd">
<!-- Generated by graphviz version 9.0.0 (20230911.1827)
 -->
<!-- Title: G Pages: 1 -->
<svg width="271pt" height="141pt"
 viewBox="0.00 0.00 270.58 140.76" xmlns="http://www.w3.org/2000/svg" xmlns:xlink="http://www.w3.org/1999/xlink">
<g id="graph0" class="graph" transform="scale(1 1) rotate(0) translate(4 136.76)">
<title>G</title>
<polygon fill="white" stroke="none" points="-4,4 -4,-136.76 266.58,-136.76 266.58,4 -4,4"/>
<!-- { argc } -->
<g id="node1" class="node">
<title>{ argc }</title>
<ellipse fill="none" stroke="black" cx="142.63" cy="-18" rx="41.12" ry="18"/>
<text text-anchor="middle" x="142.63" y="-12.95" font-family="Times,serif" font-size="14.00">{ argc }</text>
</g>
<!-- { argv } -->
<g id="node2" class="node">
<title>{ argv }</title>
<ellipse fill="none" stroke="black" cx="41.63" cy="-18" rx="41.63" ry="18"/>
<text text-anchor="middle" x="41.63" y="-12.95" font-family="Times,serif" font-size="14.00">{ argv }</text>
</g>
<!-- { argv }&#45;&#45;{ argc } -->
<g id="edge1" class="edge">
<title>{ argv }&#45;&#45;{ argc }</title>
<path fill="none" stroke="black" d="M83.45,-18C89.3,-18 95.16,-18 101.02,-18"/>
</g>
<!-- { c1 } -->
<g id="node3" class="node">
<title>{ c1 }</title>
<ellipse fill="none" stroke="black" cx="228.63" cy="-90" rx="33.95" ry="18"/>
<text text-anchor="middle" x="228.63" y="-84.95" font-family="Times,serif" font-size="14.00">{ c1 }</text>
</g>
<!-- { c1 }&#45;&#45;{ argc } -->
<g id="edge2" class="edge">
<title>{ c1 }&#45;&#45;{ argc }</title>
<path fill="none" stroke="black" d="M210.81,-74.5C196.44,-62.8 176.29,-46.4 161.62,-34.46"/>
</g>
<!-- { c2 } -->
<g id="node4" class="node">
<title>{ c2 }</title>
<ellipse fill="none" stroke="black" cx="142.63" cy="-90" rx="33.95" ry="18"/>
<text text-anchor="middle" x="142.63" y="-84.95" font-family="Times,serif" font-size="14.00">{ c2 }</text>
</g>
<!-- { c2 }&#45;&#45;{ argc } -->
<g id="edge3" class="edge">
<title>{ c2 }&#45;&#45;{ argc }</title>
<path fill="none" stroke="black" d="M142.63,-71.7C142.63,-60.85 142.63,-46.92 142.63,-36.1"/>
</g>
<!-- { cn } -->
<g id="node5" class="node">
<title>{ cn }</title>
<ellipse fill="none" stroke="black" cx="56.63" cy="-90" rx="33.95" ry="18"/>
<text text-anchor="middle" x="56.63" y="-84.95" font-family="Times,serif" font-size="14.00">{ cn }</text>
</g>
<!-- { cn }&#45;&#45;{ argc } -->
<g id="edge4" class="edge">
<title>{ cn }&#45;&#45;{ argc }</title>
<path fill="none" stroke="black" d="M74.45,-74.5C88.81,-62.8 108.97,-46.4 123.64,-34.46"/>
</g>
<!-- { cn }&#45;&#45;{ c1 } -->
<!-- { cn }&#45;&#45;{ c2 } -->
<g id="edge5" class="edge">
<title>{ cn }&#45;&#45;{ c2 }</title>
<path fill="none" stroke="black" d="M90.89,-90C96.69,-90 102.48,-90 108.27,-90"/>
</g>
</g>
</svg>
