<?xml version="1.0" encoding="UTF-8" standalone="no"?>
<!DOCTYPE svg PUBLIC "-//W3C//DTD SVG 1.1//EN"
 "http://www.w3.org/Graphics/SVG/1.1/DTD/svg11.dtd">
<!-- Generated by graphviz version 9.0.0 (20230911.1827)
 -->
<!-- Title: G Pages: 1 -->
<svg width="210pt" height="116pt"
 viewBox="0.00 0.00 209.95 116.00" xmlns="http://www.w3.org/2000/svg" xmlns:xlink="http://www.w3.org/1999/xlink">
<g id="graph0" class="graph" transform="scale(1 1) rotate(0) translate(4 112)">
<title>G</title>
<polygon fill="white" stroke="none" points="-4,4 -4,-112 205.95,-112 205.95,4 -4,4"/>
<!-- { %argc } -->
<g id="node1" class="node">
<title>{ %argc }</title>
<ellipse fill="none" stroke="black" stroke-dasharray="5,2" cx="49.82" cy="-18" rx="49.3" ry="18"/>
<text text-anchor="middle" x="49.82" y="-12.95" font-family="Times,serif" font-size="14.00">{ %argc }</text>
</g>
<!-- { %cn } -->
<g id="node4" class="node">
<title>{ %cn }</title>
<ellipse fill="none" stroke="black" stroke-dasharray="5,2" cx="158.82" cy="-18" rx="42.14" ry="18"/>
<text text-anchor="middle" x="158.82" y="-12.95" font-family="Times,serif" font-size="14.00">{ %cn }</text>
</g>
<!-- { %argc }&#45;&#45;{ %cn } -->
<g id="edge3" class="edge">
<title>{ %argc }&#45;&#45;{ %cn }</title>
<path fill="none" stroke="black" stroke-dasharray="5,2" d="M99.21,-18C104.95,-18 110.69,-18 116.44,-18"/>
</g>
<!-- { %argv } -->
<g id="node2" class="node">
<title>{ %argv }</title>
<ellipse fill="none" stroke="black" stroke-dasharray="5,2" cx="49.82" cy="-90" rx="49.82" ry="18"/>
<text text-anchor="middle" x="49.82" y="-84.95" font-family="Times,serif" font-size="14.00">{ %argv }</text>
</g>
<!-- { %argv }&#45;&#45;{ %argc } -->
<g id="edge1" class="edge">
<title>{ %argv }&#45;&#45;{ %argc }</title>
<path fill="none" stroke="black" stroke-dasharray="5,2" d="M49.82,-71.7C49.82,-60.85 49.82,-46.92 49.82,-36.1"/>
</g>
<!-- { %c1 } -->
<g id="node3" class="node">
<title>{ %c1 }</title>
<ellipse fill="#ff8888" stroke="black" cx="159.82" cy="-90" rx="42.14" ry="18"/>
<text text-anchor="middle" x="159.82" y="-84.95" font-family="Times,serif" font-size="14.00">{ %c1 }</text>
</g>
<!-- { %argv }&#45;&#45;{ %c1 } -->
<!-- { %argv }&#45;&#45;{ %cn } -->
<!-- { %c1 }&#45;&#45;{ %argc } -->
<g id="edge2" class="edge">
<title>{ %c1 }&#45;&#45;{ %argc }</title>
<path fill="none" stroke="black" stroke-dasharray="5,2" d="M137.02,-74.5C118.52,-62.72 92.51,-46.17 73.72,-34.21"/>
</g>
</g>
</svg>
