<?xml version="1.0" encoding="UTF-8" standalone="no"?>
<!DOCTYPE svg PUBLIC "-//W3C//DTD SVG 1.1//EN"
 "http://www.w3.org/Graphics/SVG/1.1/DTD/svg11.dtd">
<!-- Generated by graphviz version 9.0.0 (20230911.1827)
 -->
<!-- Title: G Pages: 1 -->
<svg width="198pt" height="116pt"
 viewBox="0.00 0.00 198.40 116.00" xmlns="http://www.w3.org/2000/svg" xmlns:xlink="http://www.w3.org/1999/xlink">
<g id="graph0" class="graph" transform="scale(1 1) rotate(0) translate(4 112)">
<title>G</title>
<polygon fill="white" stroke="none" points="-4,4 -4,-112 194.4,-112 194.4,4 -4,4"/>
<!-- { argc } -->
<g id="node1" class="node">
<title>{ argc }</title>
<ellipse fill="none" stroke="black" cx="142.63" cy="-18" rx="41.12" ry="18"/>
<text text-anchor="middle" x="142.63" y="-12.95" font-family="Times,serif" font-size="14.00">{ argc }</text>
</g>
<!-- { argv } -->
<g id="node2" class="node">
<title>{ argv }</title>
<ellipse fill="none" stroke="black" cx="41.63" cy="-18" rx="41.63" ry="18"/>
<text text-anchor="middle" x="41.63" y="-12.95" font-family="Times,serif" font-size="14.00">{ argv }</text>
</g>
<!-- { argv }&#45;&#45;{ argc } -->
<g id="edge1" class="edge">
<title>{ argv }&#45;&#45;{ argc }</title>
<path fill="none" stroke="black" d="M83.45,-18C89.3,-18 95.16,-18 101.02,-18"/>
</g>
<!-- { c1, c2 } -->
<g id="node3" class="node">
<title>{ c1, c2 }</title>
<ellipse fill="none" stroke="black" cx="142.63" cy="-90" rx="47.77" ry="18"/>
<text text-anchor="middle" x="142.63" y="-84.95" font-family="Times,serif" font-size="14.00">{ c1, c2 }</text>
</g>
<!-- { c1, c2 }&#45;&#45;{ argc } -->
<g id="edge2" class="edge">
<title>{ c1, c2 }&#45;&#45;{ argc }</title>
<path fill="none" stroke="black" d="M142.63,-71.7C142.63,-60.85 142.63,-46.92 142.63,-36.1"/>
</g>
<!-- { cn } -->
<g id="node4" class="node">
<title>{ cn }</title>
<ellipse fill="none" stroke="black" cx="42.63" cy="-90" rx="33.95" ry="18"/>
<text text-anchor="middle" x="42.63" y="-84.95" font-family="Times,serif" font-size="14.00">{ cn }</text>
</g>
<!-- { cn }&#45;&#45;{ argc } -->
<g id="edge3" class="edge">
<title>{ cn }&#45;&#45;{ argc }</title>
<path fill="none" stroke="black" d="M62.38,-75.17C79.46,-63.22 104.07,-45.99 121.53,-33.77"/>
</g>
<!-- { cn }&#45;&#45;{ argv } -->
<!-- { cn }&#45;&#45;{ c1, c2 } -->
<g id="edge4" class="edge">
<title>{ cn }&#45;&#45;{ c1, c2 }</title>
<path fill="none" stroke="black" d="M77,-90C82.81,-90 88.62,-90 94.43,-90"/>
</g>
</g>
</svg>
