<?xml version="1.0" encoding="UTF-8" standalone="no"?>
<!DOCTYPE svg PUBLIC "-//W3C//DTD SVG 1.1//EN"
 "http://www.w3.org/Graphics/SVG/1.1/DTD/svg11.dtd">
<!-- Generated by graphviz version 9.0.0 (20230911.1827)
 -->
<!-- Title: G Pages: 1 -->
<svg width="210pt" height="188pt"
 viewBox="0.00 0.00 209.95 188.00" xmlns="http://www.w3.org/2000/svg" xmlns:xlink="http://www.w3.org/1999/xlink">
<g id="graph0" class="graph" transform="scale(1 1) rotate(0) translate(4 184)">
<title>G</title>
<polygon fill="white" stroke="none" points="-4,4 -4,-184 205.95,-184 205.95,4 -4,4"/>
<!-- { %argc } -->
<g id="node1" class="node">
<title>{ %argc }</title>
<ellipse fill="none" stroke="black" cx="49.82" cy="-90" rx="49.3" ry="18"/>
<text text-anchor="middle" x="49.82" y="-84.95" font-family="Times,serif" font-size="14.00">{ %argc }</text>
</g>
<!-- { %cn } -->
<g id="node5" class="node">
<title>{ %cn }</title>
<ellipse fill="none" stroke="black" cx="158.82" cy="-90" rx="42.14" ry="18"/>
<text text-anchor="middle" x="158.82" y="-84.95" font-family="Times,serif" font-size="14.00">{ %cn }</text>
</g>
<!-- { %argc }&#45;&#45;{ %cn } -->
<g id="edge4" class="edge">
<title>{ %argc }&#45;&#45;{ %cn }</title>
<path fill="none" stroke="black" d="M99.21,-90C104.95,-90 110.69,-90 116.44,-90"/>
</g>
<!-- { %argv } -->
<g id="node2" class="node">
<title>{ %argv }</title>
<ellipse fill="none" stroke="black" stroke-dasharray="5,2" cx="49.82" cy="-162" rx="49.82" ry="18"/>
<text text-anchor="middle" x="49.82" y="-156.95" font-family="Times,serif" font-size="14.00">{ %argv }</text>
</g>
<!-- { %argv }&#45;&#45;{ %argc } -->
<g id="edge1" class="edge">
<title>{ %argv }&#45;&#45;{ %argc }</title>
<path fill="none" stroke="black" stroke-dasharray="5,2" d="M49.82,-143.7C49.82,-132.85 49.82,-118.92 49.82,-108.1"/>
</g>
<!-- { %c1 } -->
<g id="node3" class="node">
<title>{ %c1 }</title>
<ellipse fill="none" stroke="black" stroke-dasharray="5,2" cx="159.82" cy="-162" rx="42.14" ry="18"/>
<text text-anchor="middle" x="159.82" y="-156.95" font-family="Times,serif" font-size="14.00">{ %c1 }</text>
</g>
<!-- { %argv }&#45;&#45;{ %c1 } -->
<!-- { %argv }&#45;&#45;{ %cn } -->
<!-- { %c1 }&#45;&#45;{ %argc } -->
<g id="edge2" class="edge">
<title>{ %c1 }&#45;&#45;{ %argc }</title>
<path fill="none" stroke="black" stroke-dasharray="5,2" d="M137.02,-146.5C118.52,-134.72 92.51,-118.17 73.72,-106.21"/>
</g>
<!-- { %c2 } -->
<g id="node4" class="node">
<title>{ %c2 }</title>
<ellipse fill="none" stroke="black" cx="103.82" cy="-18" rx="42.14" ry="18"/>
<text text-anchor="middle" x="103.82" y="-12.95" font-family="Times,serif" font-size="14.00">{ %c2 }</text>
</g>
<!-- { %c2 }&#45;&#45;{ %argc } -->
<g id="edge3" class="edge">
<title>{ %c2 }&#45;&#45;{ %argc }</title>
<path fill="none" stroke="black" d="M91.11,-35.47C82.52,-46.6 71.22,-61.25 62.61,-72.41"/>
</g>
<!-- { %cn }&#45;&#45;{ %c2 } -->
<g id="edge5" class="edge">
<title>{ %cn }&#45;&#45;{ %c2 }</title>
<path fill="none" stroke="black" d="M145.78,-72.41C137.01,-61.25 125.5,-46.6 116.76,-35.47"/>
</g>
</g>
</svg>
