<?xml version="1.0" encoding="UTF-8" standalone="no"?>
<!DOCTYPE svg PUBLIC "-//W3C//DTD SVG 1.1//EN"
 "http://www.w3.org/Graphics/SVG/1.1/DTD/svg11.dtd">
<!-- Generated by graphviz version 9.0.0 (20230911.1827)
 -->
<!-- Title: G Pages: 1 -->
<svg width="178pt" height="188pt"
 viewBox="0.00 0.00 177.58 188.00" xmlns="http://www.w3.org/2000/svg" xmlns:xlink="http://www.w3.org/1999/xlink">
<g id="graph0" class="graph" transform="scale(1 1) rotate(0) translate(4 184)">
<title>G</title>
<polygon fill="white" stroke="none" points="-4,4 -4,-184 173.58,-184 173.58,4 -4,4"/>
<!-- { argc } -->
<g id="node1" class="node">
<title>{ argc }</title>
<ellipse fill="none" stroke="black" cx="41.63" cy="-90" rx="41.12" ry="18"/>
<text text-anchor="middle" x="41.63" y="-84.95" font-family="Times,serif" font-size="14.00">{ argc }</text>
</g>
<!-- { cn } -->
<g id="node5" class="node">
<title>{ cn }</title>
<ellipse fill="none" stroke="black" cx="134.63" cy="-90" rx="33.95" ry="18"/>
<text text-anchor="middle" x="134.63" y="-84.95" font-family="Times,serif" font-size="14.00">{ cn }</text>
</g>
<!-- { argc }&#45;&#45;{ cn } -->
<g id="edge4" class="edge">
<title>{ argc }&#45;&#45;{ cn }</title>
<path fill="none" stroke="black" d="M83.04,-90C88.82,-90 94.59,-90 100.37,-90"/>
</g>
<!-- { argv } -->
<g id="node2" class="node">
<title>{ argv }</title>
<ellipse fill="none" stroke="black" cx="41.63" cy="-162" rx="41.63" ry="18"/>
<text text-anchor="middle" x="41.63" y="-156.95" font-family="Times,serif" font-size="14.00">{ argv }</text>
</g>
<!-- { argv }&#45;&#45;{ argc } -->
<g id="edge1" class="edge">
<title>{ argv }&#45;&#45;{ argc }</title>
<path fill="none" stroke="black" d="M41.63,-143.7C41.63,-132.85 41.63,-118.92 41.63,-108.1"/>
</g>
<!-- { c1 } -->
<g id="node3" class="node">
<title>{ c1 }</title>
<ellipse fill="none" stroke="black" cx="135.63" cy="-162" rx="33.95" ry="18"/>
<text text-anchor="middle" x="135.63" y="-156.95" font-family="Times,serif" font-size="14.00">{ c1 }</text>
</g>
<!-- { argv }&#45;&#45;{ c1 } -->
<!-- { argv }&#45;&#45;{ cn } -->
<!-- { c1 }&#45;&#45;{ argc } -->
<g id="edge2" class="edge">
<title>{ c1 }&#45;&#45;{ argc }</title>
<path fill="none" stroke="black" d="M116.6,-146.83C100.73,-135.01 78.15,-118.2 61.92,-106.11"/>
</g>
<!-- { c2 } -->
<g id="node4" class="node">
<title>{ c2 }</title>
<ellipse fill="none" stroke="black" cx="87.63" cy="-18" rx="33.95" ry="18"/>
<text text-anchor="middle" x="87.63" y="-12.95" font-family="Times,serif" font-size="14.00">{ c2 }</text>
</g>
<!-- { c2 }&#45;&#45;{ argc } -->
<g id="edge3" class="edge">
<title>{ c2 }&#45;&#45;{ argc }</title>
<path fill="none" stroke="black" d="M76.8,-35.47C69.49,-46.6 59.86,-61.25 52.53,-72.41"/>
</g>
<!-- { cn }&#45;&#45;{ c2 } -->
<g id="edge5" class="edge">
<title>{ cn }&#45;&#45;{ c2 }</title>
<path fill="none" stroke="black" d="M123.73,-72.76C116.13,-61.46 106.05,-46.44 98.47,-35.15"/>
</g>
</g>
</svg>
