<?xml version="1.0" encoding="UTF-8" standalone="no"?>
<!DOCTYPE svg PUBLIC "-//W3C//DTD SVG 1.1//EN"
 "http://www.w3.org/Graphics/SVG/1.1/DTD/svg11.dtd">
<!-- Generated by graphviz version 9.0.0 (20230911.1827)
 -->
<!-- Title: G Pages: 1 -->
<svg width="254pt" height="116pt"
 viewBox="0.00 0.00 253.96 116.00" xmlns="http://www.w3.org/2000/svg" xmlns:xlink="http://www.w3.org/1999/xlink">
<g id="graph0" class="graph" transform="scale(1 1) rotate(0) translate(4 112)">
<title>G</title>
<polygon fill="white" stroke="none" points="-4,4 -4,-112 249.96,-112 249.96,4 -4,4"/>
<!-- { %argc } -->
<g id="node1" class="node">
<title>{ %argc }</title>
<ellipse fill="none" stroke="black" cx="72.82" cy="-18" rx="49.3" ry="18"/>
<text text-anchor="middle" x="72.82" y="-12.95" font-family="Times,serif" font-size="14.00">{ %argc }</text>
</g>
<!-- { %cn } -->
<g id="node3" class="node">
<title>{ %cn }</title>
<ellipse fill="none" stroke="black" cx="181.82" cy="-18" rx="42.14" ry="18"/>
<text text-anchor="middle" x="181.82" y="-12.95" font-family="Times,serif" font-size="14.00">{ %cn }</text>
</g>
<!-- { %argc }&#45;&#45;{ %cn } -->
<g id="edge2" class="edge">
<title>{ %argc }&#45;&#45;{ %cn }</title>
<path fill="none" stroke="black" d="M122.21,-18C127.95,-18 133.69,-18 139.44,-18"/>
</g>
<!-- { %argv } -->
<g id="node2" class="node">
<title>{ %argv }</title>
<ellipse fill="none" stroke="black" cx="49.82" cy="-90" rx="49.82" ry="18"/>
<text text-anchor="middle" x="49.82" y="-84.95" font-family="Times,serif" font-size="14.00">{ %argv }</text>
</g>
<!-- { %argv }&#45;&#45;{ %argc } -->
<g id="edge1" class="edge">
<title>{ %argv }&#45;&#45;{ %argc }</title>
<path fill="none" stroke="black" d="M55.5,-71.7C59.07,-60.85 63.64,-46.92 67.2,-36.1"/>
</g>
<!-- { %c1, %c2 } -->
<g id="node4" class="node">
<title>{ %c1, %c2 }</title>
<ellipse fill="none" stroke="black" cx="181.82" cy="-90" rx="64.15" ry="18"/>
<text text-anchor="middle" x="181.82" y="-84.95" font-family="Times,serif" font-size="14.00">{ %c1, %c2 }</text>
</g>
<!-- { %argv }&#45;&#45;{ %c1, %c2 } -->
<!-- { %c1, %c2 }&#45;&#45;{ %argc } -->
<g id="edge3" class="edge">
<title>{ %c1, %c2 }&#45;&#45;{ %argc }</title>
<path fill="none" stroke="black" d="M156.81,-72.94C138.58,-61.24 114.06,-45.48 96.21,-34.03"/>
</g>
<!-- { %c1, %c2 }&#45;&#45;{ %cn } -->
<g id="edge4" class="edge">
<title>{ %c1, %c2 }&#45;&#45;{ %cn }</title>
<path fill="none" stroke="black" d="M181.82,-71.7C181.82,-60.85 181.82,-46.92 181.82,-36.1"/>
</g>
</g>
</svg>
